<svg xmlns="http://www.w3.org/2000/svg" viewBox="0 0 1024 576" width="1024" height="576" role="img"><rect width="1024" height="576" fill="#fbfcfe"/><rect x="295" y="394" width="138" height="14" rx="7" fill="#dd0f68" opacity="0.32"/><rect x="682" y="254" width="118" height="14" rx="7" fill="#dd0f68" opacity="0.32"/><rect x="536" y="148" width="126" height="14" rx="7" fill="#dd0f68" opacity="0.39"/><rect x="522" y="198" width="66" height="14" rx="7" fill="#dd0f68" opacity="0.28"/><rect x="600" y="246" width="81" height="14" rx="7" fill="#dd0f68" opacity="0.36"/><rect x="364" y="315" width="110" height="14" rx="7" fill="#dd0f68" opacity="0.27"/><rect x="358" y="218" width="80" height="14" rx="7" fill="#dd0f68" opacity="0.28"/><rect x="269" y="234" width="74" height="14" rx="7" fill="#dd0f68" opacity="0.22"/><rect x="451" y="247" width="138" height="14" rx="7" fill="#dd0f68" opacity="0.25"/><rect x="301" y="210" width="110" height="14" rx="7" fill="#dd0f68" opacity="0.12"/><rect x="721" y="200" width="169" height="14" rx="7" fill="#dd0f68" opacity="0.32"/><rect x="509" y="278" width="142" height="14" rx="7" fill="#dd0f68" opacity="0.34"/><rect x="312" y="124" width="142" height="14" rx="7" fill="#dd0f68" opacity="0.33"/><rect x="188" y="194" width="120" height="14" rx="7" fill="#dd0f68" opacity="0.18"/><rect x="0.5" y="0.5" width="1023" height="575" fill="none" stroke="#e3e8f0"/></svg>