<svg xmlns="http://www.w3.org/2000/svg" viewBox="0 0 1024 576" width="1024" height="576" role="img"><rect width="1024" height="576" fill="#fbfcfe"/><line x1="200" y1="450" x2="824" y2="450" stroke="#e3e8f0" stroke-width="2"/><line x1="200" y1="450" x2="200" y2="110" stroke="#e3e8f0" stroke-width="2"/><circle cx="220" cy="404" r="6" fill="#6d4fe0" opacity="0.45"/><circle cx="243" cy="383" r="4" fill="#6d4fe0" opacity="0.45"/><circle cx="266" cy="423" r="6" fill="#6d4fe0" opacity="0.45"/><circle cx="290" cy="392" r="5" fill="#6d4fe0" opacity="0.45"/><circle cx="313" cy="381" r="7" fill="#6d4fe0" opacity="0.45"/><circle cx="336" cy="416" r="6" fill="#6d4fe0" opacity="0.45"/><circle cx="359" cy="399" r="7" fill="#6d4fe0" opacity="0.45"/><circle cx="382" cy="352" r="6" fill="#6d4fe0" opacity="0.45"/><circle cx="406" cy="354" r="7" fill="#6d4fe0" opacity="0.45"/><circle cx="429" cy="323" r="4" fill="#6d4fe0" opacity="0.45"/><circle cx="452" cy="347" r="6" fill="#6d4fe0" opacity="0.45"/><circle cx="475" cy="317" r="6" fill="#6d4fe0" opacity="0.45"/><circle cx="498" cy="271" r="4" fill="#6d4fe0" opacity="0.45"/><circle cx="522" cy="303" r="5" fill="#6d4fe0" opacity="0.45"/><circle cx="545" cy="315" r="5" fill="#6d4fe0" opacity="0.45"/><circle cx="568" cy="294" r="7" fill="#6d4fe0" opacity="0.45"/><circle cx="591" cy="246" r="7" fill="#6d4fe0" opacity="0.45"/><circle cx="614" cy="255" r="5" fill="#6d4fe0" opacity="0.45"/><circle cx="638" cy="242" r="6" fill="#6d4fe0" opacity="0.45"/><circle cx="661" cy="221" r="6" fill="#6d4fe0" opacity="0.45"/><circle cx="684" cy="237" r="4" fill="#6d4fe0" opacity="0.45"/><circle cx="707" cy="209" r="5" fill="#6d4fe0" opacity="0.45"/><circle cx="730" cy="189" r="6" fill="#6d4fe0" opacity="0.45"/><circle cx="754" cy="198" r="7" fill="#6d4fe0" opacity="0.45"/><circle cx="777" cy="143" r="5" fill="#6d4fe0" opacity="0.45"/><circle cx="800" cy="120" r="6" fill="#6d4fe0" opacity="0.45"/><line x1="220" y1="430" x2="800" y2="150" stroke="#6d4fe0" stroke-width="2.5" stroke-dasharray="8 6"/><rect x="0.5" y="0.5" width="1023" height="575" fill="none" stroke="#e3e8f0"/></svg>