<svg xmlns="http://www.w3.org/2000/svg" viewBox="0 0 1024 576" width="1024" height="576" role="img"><rect width="1024" height="576" fill="#fbfcfe"/><rect x="703" y="397" width="130" height="14" rx="7" fill="#dd0f68" opacity="0.28"/><rect x="296" y="151" width="94" height="14" rx="7" fill="#dd0f68" opacity="0.12"/><rect x="648" y="380" width="119" height="14" rx="7" fill="#dd0f68" opacity="0.25"/><rect x="724" y="277" width="155" height="14" rx="7" fill="#dd0f68" opacity="0.18"/><rect x="714" y="376" width="97" height="14" rx="7" fill="#dd0f68" opacity="0.38"/><rect x="643" y="287" width="151" height="14" rx="7" fill="#dd0f68" opacity="0.12"/><rect x="212" y="278" width="112" height="14" rx="7" fill="#dd0f68" opacity="0.31"/><rect x="723" y="417" width="132" height="14" rx="7" fill="#dd0f68" opacity="0.19"/><rect x="182" y="196" width="140" height="14" rx="7" fill="#dd0f68" opacity="0.22"/><rect x="194" y="319" width="130" height="14" rx="7" fill="#dd0f68" opacity="0.31"/><rect x="379" y="318" width="87" height="14" rx="7" fill="#dd0f68" opacity="0.22"/><rect x="526" y="300" width="82" height="14" rx="7" fill="#dd0f68" opacity="0.25"/><rect x="735" y="284" width="78" height="14" rx="7" fill="#dd0f68" opacity="0.22"/><rect x="722" y="378" width="127" height="14" rx="7" fill="#dd0f68" opacity="0.23"/><rect x="0.5" y="0.5" width="1023" height="575" fill="none" stroke="#e3e8f0"/></svg>