<svg xmlns="http://www.w3.org/2000/svg" viewBox="0 0 1024 576" width="1024" height="576" role="img"><rect width="1024" height="576" fill="#fbfcfe"/><rect x="302" y="405" width="158" height="14" rx="7" fill="#dd0f68" opacity="0.35"/><rect x="743" y="356" width="165" height="14" rx="7" fill="#dd0f68" opacity="0.19"/><rect x="483" y="270" width="70" height="14" rx="7" fill="#dd0f68" opacity="0.34"/><rect x="666" y="178" width="113" height="14" rx="7" fill="#dd0f68" opacity="0.24"/><rect x="340" y="277" width="135" height="14" rx="7" fill="#dd0f68" opacity="0.30"/><rect x="747" y="183" width="117" height="14" rx="7" fill="#dd0f68" opacity="0.21"/><rect x="703" y="130" width="78" height="14" rx="7" fill="#dd0f68" opacity="0.27"/><rect x="497" y="355" width="71" height="14" rx="7" fill="#dd0f68" opacity="0.38"/><rect x="634" y="239" width="88" height="14" rx="7" fill="#dd0f68" opacity="0.37"/><rect x="288" y="180" width="94" height="14" rx="7" fill="#dd0f68" opacity="0.38"/><rect x="526" y="309" width="95" height="14" rx="7" fill="#dd0f68" opacity="0.37"/><rect x="662" y="315" width="88" height="14" rx="7" fill="#dd0f68" opacity="0.25"/><rect x="542" y="374" width="144" height="14" rx="7" fill="#dd0f68" opacity="0.37"/><rect x="246" y="235" width="161" height="14" rx="7" fill="#dd0f68" opacity="0.30"/><rect x="0.5" y="0.5" width="1023" height="575" fill="none" stroke="#e3e8f0"/></svg>