<svg xmlns="http://www.w3.org/2000/svg" viewBox="0 0 1024 576" width="1024" height="576" role="img"><rect width="1024" height="576" fill="#fbfcfe"/><line x1="200" y1="450" x2="824" y2="450" stroke="#e3e8f0" stroke-width="2"/><line x1="200" y1="450" x2="200" y2="110" stroke="#e3e8f0" stroke-width="2"/><circle cx="220" cy="442" r="7" fill="#0e9d8a" opacity="0.45"/><circle cx="243" cy="417" r="8" fill="#0e9d8a" opacity="0.45"/><circle cx="266" cy="448" r="6" fill="#0e9d8a" opacity="0.45"/><circle cx="290" cy="382" r="4" fill="#0e9d8a" opacity="0.45"/><circle cx="313" cy="415" r="6" fill="#0e9d8a" opacity="0.45"/><circle cx="336" cy="350" r="5" fill="#0e9d8a" opacity="0.45"/><circle cx="359" cy="319" r="6" fill="#0e9d8a" opacity="0.45"/><circle cx="382" cy="316" r="6" fill="#0e9d8a" opacity="0.45"/><circle cx="406" cy="333" r="7" fill="#0e9d8a" opacity="0.45"/><circle cx="429" cy="359" r="6" fill="#0e9d8a" opacity="0.45"/><circle cx="452" cy="306" r="6" fill="#0e9d8a" opacity="0.45"/><circle cx="475" cy="295" r="5" fill="#0e9d8a" opacity="0.45"/><circle cx="498" cy="307" r="7" fill="#0e9d8a" opacity="0.45"/><circle cx="522" cy="261" r="4" fill="#0e9d8a" opacity="0.45"/><circle cx="545" cy="279" r="5" fill="#0e9d8a" opacity="0.45"/><circle cx="568" cy="221" r="6" fill="#0e9d8a" opacity="0.45"/><circle cx="591" cy="267" r="5" fill="#0e9d8a" opacity="0.45"/><circle cx="614" cy="235" r="6" fill="#0e9d8a" opacity="0.45"/><circle cx="638" cy="242" r="5" fill="#0e9d8a" opacity="0.45"/><circle cx="661" cy="182" r="6" fill="#0e9d8a" opacity="0.45"/><circle cx="684" cy="201" r="8" fill="#0e9d8a" opacity="0.45"/><circle cx="707" cy="238" r="8" fill="#0e9d8a" opacity="0.45"/><circle cx="730" cy="200" r="7" fill="#0e9d8a" opacity="0.45"/><circle cx="754" cy="132" r="6" fill="#0e9d8a" opacity="0.45"/><circle cx="777" cy="150" r="8" fill="#0e9d8a" opacity="0.45"/><circle cx="800" cy="133" r="6" fill="#0e9d8a" opacity="0.45"/><line x1="220" y1="430" x2="800" y2="150" stroke="#0e9d8a" stroke-width="2.5" stroke-dasharray="8 6"/><rect x="0.5" y="0.5" width="1023" height="575" fill="none" stroke="#e3e8f0"/></svg>