<svg xmlns="http://www.w3.org/2000/svg" viewBox="0 0 1024 576" width="1024" height="576" role="img"><rect width="1024" height="576" fill="#fbfcfe"/><rect x="300" y="110" width="424" height="356" rx="10" fill="#ffffff" stroke="#e3e8f0"/><rect x="336" y="147" width="26" height="26" rx="5" fill="#fdeaee" stroke="#d0455e"/><path d="M342 160 l6 7 l12 -14" fill="none" stroke="#d0455e" stroke-width="3" stroke-linecap="round"/><rect x="382" y="153" width="234" height="12" rx="6" fill="#0d1526" opacity="0.14"/><rect x="336" y="199" width="26" height="26" rx="5" fill="#ffffff" stroke="#d0455e"/><rect x="382" y="205" width="205" height="12" rx="6" fill="#0d1526" opacity="0.14"/><rect x="336" y="251" width="26" height="26" rx="5" fill="#ffffff" stroke="#d0455e"/><rect x="382" y="257" width="164" height="12" rx="6" fill="#0d1526" opacity="0.14"/><rect x="336" y="303" width="26" height="26" rx="5" fill="#ffffff" stroke="#d0455e"/><rect x="382" y="309" width="239" height="12" rx="6" fill="#0d1526" opacity="0.14"/><rect x="336" y="355" width="26" height="26" rx="5" fill="#fdeaee" stroke="#d0455e"/><path d="M342 368 l6 7 l12 -14" fill="none" stroke="#d0455e" stroke-width="3" stroke-linecap="round"/><rect x="382" y="361" width="257" height="12" rx="6" fill="#0d1526" opacity="0.14"/><rect x="336" y="407" width="26" height="26" rx="5" fill="#fdeaee" stroke="#d0455e"/><path d="M342 420 l6 7 l12 -14" fill="none" stroke="#d0455e" stroke-width="3" stroke-linecap="round"/><rect x="382" y="413" width="160" height="12" rx="6" fill="#0d1526" opacity="0.14"/><rect x="0.5" y="0.5" width="1023" height="575" fill="none" stroke="#e3e8f0"/></svg>