<svg xmlns="http://www.w3.org/2000/svg" viewBox="0 0 1024 576" width="1024" height="576" role="img"><rect width="1024" height="576" fill="#fbfcfe"/><rect x="590" y="133" width="102" height="14" rx="7" fill="#dd0f68" opacity="0.33"/><rect x="753" y="338" width="146" height="14" rx="7" fill="#dd0f68" opacity="0.38"/><rect x="631" y="188" width="128" height="14" rx="7" fill="#dd0f68" opacity="0.38"/><rect x="208" y="180" width="136" height="14" rx="7" fill="#dd0f68" opacity="0.14"/><rect x="330" y="288" width="116" height="14" rx="7" fill="#dd0f68" opacity="0.38"/><rect x="420" y="262" width="85" height="14" rx="7" fill="#dd0f68" opacity="0.14"/><rect x="368" y="256" width="71" height="14" rx="7" fill="#dd0f68" opacity="0.20"/><rect x="536" y="279" width="69" height="14" rx="7" fill="#dd0f68" opacity="0.40"/><rect x="680" y="332" width="131" height="14" rx="7" fill="#dd0f68" opacity="0.33"/><rect x="480" y="354" width="76" height="14" rx="7" fill="#dd0f68" opacity="0.34"/><rect x="245" y="272" width="114" height="14" rx="7" fill="#dd0f68" opacity="0.25"/><rect x="329" y="273" width="84" height="14" rx="7" fill="#dd0f68" opacity="0.23"/><rect x="538" y="207" width="153" height="14" rx="7" fill="#dd0f68" opacity="0.19"/><rect x="737" y="367" width="121" height="14" rx="7" fill="#dd0f68" opacity="0.20"/><rect x="0.5" y="0.5" width="1023" height="575" fill="none" stroke="#e3e8f0"/></svg>