<svg xmlns="http://www.w3.org/2000/svg" viewBox="0 0 1024 576" width="1024" height="576" role="img"><rect width="1024" height="576" fill="#fbfcfe"/><rect x="697" y="384" width="138" height="14" rx="7" fill="#d0455e" opacity="0.31"/><rect x="319" y="213" width="108" height="14" rx="7" fill="#d0455e" opacity="0.33"/><rect x="217" y="335" width="100" height="14" rx="7" fill="#d0455e" opacity="0.19"/><rect x="255" y="207" width="61" height="14" rx="7" fill="#d0455e" opacity="0.24"/><rect x="275" y="283" width="76" height="14" rx="7" fill="#d0455e" opacity="0.22"/><rect x="345" y="173" width="143" height="14" rx="7" fill="#d0455e" opacity="0.21"/><rect x="225" y="319" width="84" height="14" rx="7" fill="#d0455e" opacity="0.29"/><rect x="303" y="251" width="147" height="14" rx="7" fill="#d0455e" opacity="0.17"/><rect x="258" y="337" width="105" height="14" rx="7" fill="#d0455e" opacity="0.24"/><rect x="654" y="192" width="85" height="14" rx="7" fill="#d0455e" opacity="0.19"/><rect x="626" y="142" width="76" height="14" rx="7" fill="#d0455e" opacity="0.38"/><rect x="748" y="410" width="77" height="14" rx="7" fill="#d0455e" opacity="0.40"/><rect x="568" y="319" width="124" height="14" rx="7" fill="#d0455e" opacity="0.28"/><rect x="517" y="170" width="153" height="14" rx="7" fill="#d0455e" opacity="0.21"/><rect x="0.5" y="0.5" width="1023" height="575" fill="none" stroke="#e3e8f0"/></svg>