<svg xmlns="http://www.w3.org/2000/svg" viewBox="0 0 1024 576" width="1024" height="576" role="img"><rect width="1024" height="576" fill="#fbfcfe"/><rect x="392" y="216" width="240" height="144" rx="8" fill="#e2f7f3" stroke="#0e9d8a" stroke-width="2"/><line x1="392" y1="240" x2="242" y2="240" stroke="#0e9d8a" stroke-width="1.5" opacity="0.4"/><line x1="632" y1="240" x2="750" y2="240" stroke="#0e9d8a" stroke-width="1.5" opacity="0.4"/><line x1="392" y1="252" x2="254" y2="252" stroke="#0e9d8a" stroke-width="1.5" opacity="0.4"/><line x1="632" y1="252" x2="737" y2="252" stroke="#0e9d8a" stroke-width="1.5" opacity="0.4"/><line x1="392" y1="264" x2="227" y2="264" stroke="#0e9d8a" stroke-width="1.5" opacity="0.4"/><line x1="632" y1="264" x2="809" y2="264" stroke="#0e9d8a" stroke-width="1.5" opacity="0.4"/><line x1="392" y1="276" x2="336" y2="276" stroke="#0e9d8a" stroke-width="1.5" opacity="0.4"/><line x1="632" y1="276" x2="809" y2="276" stroke="#0e9d8a" stroke-width="1.5" opacity="0.4"/><line x1="392" y1="288" x2="261" y2="288" stroke="#0e9d8a" stroke-width="1.5" opacity="0.4"/><line x1="632" y1="288" x2="807" y2="288" stroke="#0e9d8a" stroke-width="1.5" opacity="0.4"/><line x1="392" y1="300" x2="300" y2="300" stroke="#0e9d8a" stroke-width="1.5" opacity="0.4"/><line x1="632" y1="300" x2="805" y2="300" stroke="#0e9d8a" stroke-width="1.5" opacity="0.4"/><line x1="392" y1="312" x2="288" y2="312" stroke="#0e9d8a" stroke-width="1.5" opacity="0.4"/><line x1="632" y1="312" x2="789" y2="312" stroke="#0e9d8a" stroke-width="1.5" opacity="0.4"/><line x1="392" y1="324" x2="326" y2="324" stroke="#0e9d8a" stroke-width="1.5" opacity="0.4"/><line x1="632" y1="324" x2="800" y2="324" stroke="#0e9d8a" stroke-width="1.5" opacity="0.4"/><line x1="392" y1="336" x2="296" y2="336" stroke="#0e9d8a" stroke-width="1.5" opacity="0.4"/><line x1="632" y1="336" x2="752" y2="336" stroke="#0e9d8a" stroke-width="1.5" opacity="0.4"/><line x1="420" y1="216" x2="420" y2="128" stroke="#0e9d8a" stroke-width="1.5" opacity="0.35"/><line x1="420" y1="360" x2="420" y2="460" stroke="#0e9d8a" stroke-width="1.5" opacity="0.35"/><line x1="456" y1="216" x2="456" y2="129" stroke="#0e9d8a" stroke-width="1.5" opacity="0.35"/><line x1="456" y1="360" x2="456" y2="453" stroke="#0e9d8a" stroke-width="1.5" opacity="0.35"/><line x1="492" y1="216" x2="492" y2="158" stroke="#0e9d8a" stroke-width="1.5" opacity="0.35"/><line x1="492" y1="360" x2="492" y2="410" stroke="#0e9d8a" stroke-width="1.5" opacity="0.35"/><line x1="528" y1="216" x2="528" y2="141" stroke="#0e9d8a" stroke-width="1.5" opacity="0.35"/><line x1="528" y1="360" x2="528" y2="450" stroke="#0e9d8a" stroke-width="1.5" opacity="0.35"/><line x1="564" y1="216" x2="564" y2="147" stroke="#0e9d8a" stroke-width="1.5" opacity="0.35"/><line x1="564" y1="360" x2="564" y2="416" stroke="#0e9d8a" stroke-width="1.5" opacity="0.35"/><line x1="600" y1="216" x2="600" y2="162" stroke="#0e9d8a" stroke-width="1.5" opacity="0.35"/><line x1="600" y1="360" x2="600" y2="415" stroke="#0e9d8a" stroke-width="1.5" opacity="0.35"/><rect x="0.5" y="0.5" width="1023" height="575" fill="none" stroke="#e3e8f0"/></svg>