<svg xmlns="http://www.w3.org/2000/svg" viewBox="0 0 1024 576" width="1024" height="576" role="img"><rect width="1024" height="576" fill="#fbfcfe"/><rect x="756" y="137" width="70" height="14" rx="7" fill="#dd0f68" opacity="0.12"/><rect x="608" y="221" width="77" height="14" rx="7" fill="#dd0f68" opacity="0.16"/><rect x="263" y="327" width="122" height="14" rx="7" fill="#dd0f68" opacity="0.16"/><rect x="713" y="290" width="129" height="14" rx="7" fill="#dd0f68" opacity="0.36"/><rect x="372" y="173" width="64" height="14" rx="7" fill="#dd0f68" opacity="0.26"/><rect x="250" y="381" width="169" height="14" rx="7" fill="#dd0f68" opacity="0.34"/><rect x="426" y="240" width="111" height="14" rx="7" fill="#dd0f68" opacity="0.13"/><rect x="248" y="142" width="116" height="14" rx="7" fill="#dd0f68" opacity="0.21"/><rect x="733" y="243" width="92" height="14" rx="7" fill="#dd0f68" opacity="0.20"/><rect x="732" y="217" width="142" height="14" rx="7" fill="#dd0f68" opacity="0.21"/><rect x="239" y="268" width="90" height="14" rx="7" fill="#dd0f68" opacity="0.36"/><rect x="611" y="397" width="145" height="14" rx="7" fill="#dd0f68" opacity="0.21"/><rect x="359" y="132" width="76" height="14" rx="7" fill="#dd0f68" opacity="0.23"/><rect x="421" y="339" width="157" height="14" rx="7" fill="#dd0f68" opacity="0.17"/><rect x="0.5" y="0.5" width="1023" height="575" fill="none" stroke="#e3e8f0"/></svg>