<svg xmlns="http://www.w3.org/2000/svg" viewBox="0 0 1024 576" width="1024" height="576" role="img"><rect width="1024" height="576" fill="#fbfcfe"/><rect x="300" y="110" width="424" height="356" rx="10" fill="#ffffff" stroke="#e3e8f0"/><rect x="336" y="147" width="26" height="26" rx="5" fill="#ffffff" stroke="#6d4fe0"/><rect x="382" y="153" width="222" height="12" rx="6" fill="#0d1526" opacity="0.14"/><rect x="336" y="199" width="26" height="26" rx="5" fill="#ffffff" stroke="#6d4fe0"/><rect x="382" y="205" width="224" height="12" rx="6" fill="#0d1526" opacity="0.14"/><rect x="336" y="251" width="26" height="26" rx="5" fill="#ffffff" stroke="#6d4fe0"/><rect x="382" y="257" width="247" height="12" rx="6" fill="#0d1526" opacity="0.14"/><rect x="336" y="303" width="26" height="26" rx="5" fill="#f0ebff" stroke="#6d4fe0"/><path d="M342 316 l6 7 l12 -14" fill="none" stroke="#6d4fe0" stroke-width="3" stroke-linecap="round"/><rect x="382" y="309" width="251" height="12" rx="6" fill="#0d1526" opacity="0.14"/><rect x="336" y="355" width="26" height="26" rx="5" fill="#f0ebff" stroke="#6d4fe0"/><path d="M342 368 l6 7 l12 -14" fill="none" stroke="#6d4fe0" stroke-width="3" stroke-linecap="round"/><rect x="382" y="361" width="165" height="12" rx="6" fill="#0d1526" opacity="0.14"/><rect x="336" y="407" width="26" height="26" rx="5" fill="#ffffff" stroke="#6d4fe0"/><rect x="382" y="413" width="284" height="12" rx="6" fill="#0d1526" opacity="0.14"/><rect x="0.5" y="0.5" width="1023" height="575" fill="none" stroke="#e3e8f0"/></svg>