<svg xmlns="http://www.w3.org/2000/svg" viewBox="0 0 1024 576" width="1024" height="576" role="img"><rect width="1024" height="576" fill="#fbfcfe"/><rect x="421" y="354" width="130" height="14" rx="7" fill="#dd0f68" opacity="0.35"/><rect x="264" y="247" width="164" height="14" rx="7" fill="#dd0f68" opacity="0.25"/><rect x="259" y="305" width="89" height="14" rx="7" fill="#dd0f68" opacity="0.31"/><rect x="286" y="131" width="73" height="14" rx="7" fill="#dd0f68" opacity="0.36"/><rect x="510" y="207" width="97" height="14" rx="7" fill="#dd0f68" opacity="0.30"/><rect x="449" y="168" width="161" height="14" rx="7" fill="#dd0f68" opacity="0.13"/><rect x="543" y="388" width="110" height="14" rx="7" fill="#dd0f68" opacity="0.17"/><rect x="662" y="200" width="97" height="14" rx="7" fill="#dd0f68" opacity="0.27"/><rect x="756" y="406" width="127" height="14" rx="7" fill="#dd0f68" opacity="0.36"/><rect x="222" y="413" width="69" height="14" rx="7" fill="#dd0f68" opacity="0.34"/><rect x="351" y="346" width="75" height="14" rx="7" fill="#dd0f68" opacity="0.32"/><rect x="238" y="280" width="115" height="14" rx="7" fill="#dd0f68" opacity="0.24"/><rect x="567" y="227" width="69" height="14" rx="7" fill="#dd0f68" opacity="0.12"/><rect x="266" y="367" width="108" height="14" rx="7" fill="#dd0f68" opacity="0.33"/><rect x="0.5" y="0.5" width="1023" height="575" fill="none" stroke="#e3e8f0"/></svg>