<svg xmlns="http://www.w3.org/2000/svg" viewBox="0 0 1024 576" width="1024" height="576" role="img"><rect width="1024" height="576" fill="#fbfcfe"/><rect x="681" y="377" width="139" height="14" rx="7" fill="#dd0f68" opacity="0.39"/><rect x="181" y="414" width="69" height="14" rx="7" fill="#dd0f68" opacity="0.19"/><rect x="626" y="145" width="109" height="14" rx="7" fill="#dd0f68" opacity="0.25"/><rect x="633" y="299" width="106" height="14" rx="7" fill="#dd0f68" opacity="0.16"/><rect x="326" y="320" width="96" height="14" rx="7" fill="#dd0f68" opacity="0.29"/><rect x="276" y="121" width="64" height="14" rx="7" fill="#dd0f68" opacity="0.29"/><rect x="518" y="281" width="168" height="14" rx="7" fill="#dd0f68" opacity="0.26"/><rect x="730" y="333" width="76" height="14" rx="7" fill="#dd0f68" opacity="0.12"/><rect x="715" y="246" width="101" height="14" rx="7" fill="#dd0f68" opacity="0.39"/><rect x="727" y="408" width="162" height="14" rx="7" fill="#dd0f68" opacity="0.15"/><rect x="332" y="373" width="67" height="14" rx="7" fill="#dd0f68" opacity="0.39"/><rect x="339" y="190" width="95" height="14" rx="7" fill="#dd0f68" opacity="0.22"/><rect x="681" y="171" width="132" height="14" rx="7" fill="#dd0f68" opacity="0.35"/><rect x="434" y="365" width="82" height="14" rx="7" fill="#dd0f68" opacity="0.31"/><rect x="0.5" y="0.5" width="1023" height="575" fill="none" stroke="#e3e8f0"/></svg>