<svg xmlns="http://www.w3.org/2000/svg" viewBox="0 0 1024 576" width="1024" height="576" role="img"><rect width="1024" height="576" fill="#fbfcfe"/><rect x="649" y="237" width="105" height="14" rx="7" fill="#dd0f68" opacity="0.14"/><rect x="525" y="164" width="129" height="14" rx="7" fill="#dd0f68" opacity="0.29"/><rect x="242" y="419" width="143" height="14" rx="7" fill="#dd0f68" opacity="0.31"/><rect x="207" y="390" width="148" height="14" rx="7" fill="#dd0f68" opacity="0.29"/><rect x="366" y="130" width="130" height="14" rx="7" fill="#dd0f68" opacity="0.19"/><rect x="258" y="143" width="84" height="14" rx="7" fill="#dd0f68" opacity="0.23"/><rect x="559" y="154" width="92" height="14" rx="7" fill="#dd0f68" opacity="0.25"/><rect x="392" y="418" width="103" height="14" rx="7" fill="#dd0f68" opacity="0.29"/><rect x="543" y="357" width="111" height="14" rx="7" fill="#dd0f68" opacity="0.35"/><rect x="208" y="328" width="148" height="14" rx="7" fill="#dd0f68" opacity="0.34"/><rect x="210" y="169" width="65" height="14" rx="7" fill="#dd0f68" opacity="0.22"/><rect x="355" y="251" width="119" height="14" rx="7" fill="#dd0f68" opacity="0.29"/><rect x="731" y="198" width="147" height="14" rx="7" fill="#dd0f68" opacity="0.22"/><rect x="259" y="412" width="87" height="14" rx="7" fill="#dd0f68" opacity="0.34"/><rect x="0.5" y="0.5" width="1023" height="575" fill="none" stroke="#e3e8f0"/></svg>