<svg xmlns="http://www.w3.org/2000/svg" viewBox="0 0 1024 576" width="1024" height="576" role="img"><rect width="1024" height="576" fill="#fbfcfe"/><line x1="200" y1="450" x2="824" y2="450" stroke="#e3e8f0" stroke-width="2"/><line x1="200" y1="450" x2="200" y2="110" stroke="#e3e8f0" stroke-width="2"/><circle cx="220" cy="471" r="6" fill="#b4761a" opacity="0.45"/><circle cx="243" cy="416" r="6" fill="#b4761a" opacity="0.45"/><circle cx="266" cy="435" r="4" fill="#b4761a" opacity="0.45"/><circle cx="290" cy="439" r="4" fill="#b4761a" opacity="0.45"/><circle cx="313" cy="423" r="4" fill="#b4761a" opacity="0.45"/><circle cx="336" cy="361" r="6" fill="#b4761a" opacity="0.45"/><circle cx="359" cy="331" r="5" fill="#b4761a" opacity="0.45"/><circle cx="382" cy="354" r="6" fill="#b4761a" opacity="0.45"/><circle cx="406" cy="382" r="5" fill="#b4761a" opacity="0.45"/><circle cx="429" cy="322" r="5" fill="#b4761a" opacity="0.45"/><circle cx="452" cy="280" r="7" fill="#b4761a" opacity="0.45"/><circle cx="475" cy="292" r="7" fill="#b4761a" opacity="0.45"/><circle cx="498" cy="299" r="5" fill="#b4761a" opacity="0.45"/><circle cx="522" cy="269" r="7" fill="#b4761a" opacity="0.45"/><circle cx="545" cy="246" r="6" fill="#b4761a" opacity="0.45"/><circle cx="568" cy="269" r="8" fill="#b4761a" opacity="0.45"/><circle cx="591" cy="229" r="6" fill="#b4761a" opacity="0.45"/><circle cx="614" cy="263" r="5" fill="#b4761a" opacity="0.45"/><circle cx="638" cy="262" r="6" fill="#b4761a" opacity="0.45"/><circle cx="661" cy="231" r="8" fill="#b4761a" opacity="0.45"/><circle cx="684" cy="250" r="5" fill="#b4761a" opacity="0.45"/><circle cx="707" cy="206" r="7" fill="#b4761a" opacity="0.45"/><circle cx="730" cy="157" r="4" fill="#b4761a" opacity="0.45"/><circle cx="754" cy="134" r="6" fill="#b4761a" opacity="0.45"/><circle cx="777" cy="186" r="4" fill="#b4761a" opacity="0.45"/><circle cx="800" cy="135" r="4" fill="#b4761a" opacity="0.45"/><line x1="220" y1="430" x2="800" y2="150" stroke="#b4761a" stroke-width="2.5" stroke-dasharray="8 6"/><rect x="0.5" y="0.5" width="1023" height="575" fill="none" stroke="#e3e8f0"/></svg>