<svg xmlns="http://www.w3.org/2000/svg" viewBox="0 0 1024 576" width="1024" height="576" role="img"><rect width="1024" height="576" fill="#fbfcfe"/><rect x="314" y="121" width="88" height="14" rx="7" fill="#dd0f68" opacity="0.18"/><rect x="498" y="304" width="107" height="14" rx="7" fill="#dd0f68" opacity="0.36"/><rect x="224" y="152" width="119" height="14" rx="7" fill="#dd0f68" opacity="0.29"/><rect x="645" y="351" width="139" height="14" rx="7" fill="#dd0f68" opacity="0.18"/><rect x="185" y="137" width="147" height="14" rx="7" fill="#dd0f68" opacity="0.39"/><rect x="615" y="179" width="85" height="14" rx="7" fill="#dd0f68" opacity="0.23"/><rect x="684" y="409" width="101" height="14" rx="7" fill="#dd0f68" opacity="0.23"/><rect x="636" y="353" width="96" height="14" rx="7" fill="#dd0f68" opacity="0.30"/><rect x="332" y="169" width="138" height="14" rx="7" fill="#dd0f68" opacity="0.39"/><rect x="261" y="158" width="140" height="14" rx="7" fill="#dd0f68" opacity="0.37"/><rect x="256" y="257" width="80" height="14" rx="7" fill="#dd0f68" opacity="0.34"/><rect x="393" y="351" width="108" height="14" rx="7" fill="#dd0f68" opacity="0.17"/><rect x="480" y="158" width="119" height="14" rx="7" fill="#dd0f68" opacity="0.19"/><rect x="446" y="392" width="65" height="14" rx="7" fill="#dd0f68" opacity="0.23"/><rect x="0.5" y="0.5" width="1023" height="575" fill="none" stroke="#e3e8f0"/></svg>