<svg xmlns="http://www.w3.org/2000/svg" viewBox="0 0 1024 576" width="1024" height="576" role="img"><rect width="1024" height="576" fill="#fbfcfe"/><rect x="502" y="370" width="136" height="14" rx="7" fill="#dd0f68" opacity="0.23"/><rect x="246" y="138" width="62" height="14" rx="7" fill="#dd0f68" opacity="0.39"/><rect x="631" y="153" width="72" height="14" rx="7" fill="#dd0f68" opacity="0.29"/><rect x="340" y="280" width="71" height="14" rx="7" fill="#dd0f68" opacity="0.28"/><rect x="359" y="145" width="84" height="14" rx="7" fill="#dd0f68" opacity="0.15"/><rect x="547" y="309" width="87" height="14" rx="7" fill="#dd0f68" opacity="0.24"/><rect x="316" y="160" width="66" height="14" rx="7" fill="#dd0f68" opacity="0.32"/><rect x="435" y="278" width="81" height="14" rx="7" fill="#dd0f68" opacity="0.16"/><rect x="424" y="408" width="145" height="14" rx="7" fill="#dd0f68" opacity="0.17"/><rect x="676" y="149" width="106" height="14" rx="7" fill="#dd0f68" opacity="0.13"/><rect x="439" y="280" width="80" height="14" rx="7" fill="#dd0f68" opacity="0.35"/><rect x="268" y="187" width="109" height="14" rx="7" fill="#dd0f68" opacity="0.27"/><rect x="376" y="416" width="138" height="14" rx="7" fill="#dd0f68" opacity="0.26"/><rect x="297" y="195" width="95" height="14" rx="7" fill="#dd0f68" opacity="0.38"/><rect x="0.5" y="0.5" width="1023" height="575" fill="none" stroke="#e3e8f0"/></svg>