<svg xmlns="http://www.w3.org/2000/svg" viewBox="0 0 1024 576" width="1024" height="576" role="img"><rect width="1024" height="576" fill="#fbfcfe"/><line x1="200" y1="450" x2="824" y2="450" stroke="#e3e8f0" stroke-width="2"/><line x1="200" y1="450" x2="200" y2="110" stroke="#e3e8f0" stroke-width="2"/><circle cx="220" cy="450" r="4" fill="#d0455e" opacity="0.45"/><circle cx="243" cy="433" r="7" fill="#d0455e" opacity="0.45"/><circle cx="266" cy="417" r="6" fill="#d0455e" opacity="0.45"/><circle cx="290" cy="356" r="7" fill="#d0455e" opacity="0.45"/><circle cx="313" cy="405" r="6" fill="#d0455e" opacity="0.45"/><circle cx="336" cy="405" r="7" fill="#d0455e" opacity="0.45"/><circle cx="359" cy="336" r="4" fill="#d0455e" opacity="0.45"/><circle cx="382" cy="370" r="7" fill="#d0455e" opacity="0.45"/><circle cx="406" cy="376" r="4" fill="#d0455e" opacity="0.45"/><circle cx="429" cy="361" r="6" fill="#d0455e" opacity="0.45"/><circle cx="452" cy="298" r="5" fill="#d0455e" opacity="0.45"/><circle cx="475" cy="340" r="6" fill="#d0455e" opacity="0.45"/><circle cx="498" cy="269" r="7" fill="#d0455e" opacity="0.45"/><circle cx="522" cy="291" r="5" fill="#d0455e" opacity="0.45"/><circle cx="545" cy="309" r="6" fill="#d0455e" opacity="0.45"/><circle cx="568" cy="243" r="4" fill="#d0455e" opacity="0.45"/><circle cx="591" cy="284" r="7" fill="#d0455e" opacity="0.45"/><circle cx="614" cy="231" r="7" fill="#d0455e" opacity="0.45"/><circle cx="638" cy="185" r="4" fill="#d0455e" opacity="0.45"/><circle cx="661" cy="233" r="8" fill="#d0455e" opacity="0.45"/><circle cx="684" cy="206" r="8" fill="#d0455e" opacity="0.45"/><circle cx="707" cy="235" r="5" fill="#d0455e" opacity="0.45"/><circle cx="730" cy="195" r="7" fill="#d0455e" opacity="0.45"/><circle cx="754" cy="208" r="6" fill="#d0455e" opacity="0.45"/><circle cx="777" cy="193" r="5" fill="#d0455e" opacity="0.45"/><circle cx="800" cy="125" r="5" fill="#d0455e" opacity="0.45"/><line x1="220" y1="430" x2="800" y2="150" stroke="#d0455e" stroke-width="2.5" stroke-dasharray="8 6"/><rect x="0.5" y="0.5" width="1023" height="575" fill="none" stroke="#e3e8f0"/></svg>