<svg xmlns="http://www.w3.org/2000/svg" viewBox="0 0 1024 576" width="1024" height="576" role="img"><rect width="1024" height="576" fill="#fbfcfe"/><rect x="392" y="216" width="240" height="144" rx="8" fill="#e2f7f3" stroke="#0e9d8a" stroke-width="2"/><line x1="392" y1="240" x2="228" y2="240" stroke="#0e9d8a" stroke-width="1.5" opacity="0.4"/><line x1="632" y1="240" x2="752" y2="240" stroke="#0e9d8a" stroke-width="1.5" opacity="0.4"/><line x1="392" y1="252" x2="294" y2="252" stroke="#0e9d8a" stroke-width="1.5" opacity="0.4"/><line x1="632" y1="252" x2="760" y2="252" stroke="#0e9d8a" stroke-width="1.5" opacity="0.4"/><line x1="392" y1="264" x2="318" y2="264" stroke="#0e9d8a" stroke-width="1.5" opacity="0.4"/><line x1="632" y1="264" x2="778" y2="264" stroke="#0e9d8a" stroke-width="1.5" opacity="0.4"/><line x1="392" y1="276" x2="266" y2="276" stroke="#0e9d8a" stroke-width="1.5" opacity="0.4"/><line x1="632" y1="276" x2="732" y2="276" stroke="#0e9d8a" stroke-width="1.5" opacity="0.4"/><line x1="392" y1="288" x2="334" y2="288" stroke="#0e9d8a" stroke-width="1.5" opacity="0.4"/><line x1="632" y1="288" x2="749" y2="288" stroke="#0e9d8a" stroke-width="1.5" opacity="0.4"/><line x1="392" y1="300" x2="298" y2="300" stroke="#0e9d8a" stroke-width="1.5" opacity="0.4"/><line x1="632" y1="300" x2="690" y2="300" stroke="#0e9d8a" stroke-width="1.5" opacity="0.4"/><line x1="392" y1="312" x2="216" y2="312" stroke="#0e9d8a" stroke-width="1.5" opacity="0.4"/><line x1="632" y1="312" x2="717" y2="312" stroke="#0e9d8a" stroke-width="1.5" opacity="0.4"/><line x1="392" y1="324" x2="308" y2="324" stroke="#0e9d8a" stroke-width="1.5" opacity="0.4"/><line x1="632" y1="324" x2="719" y2="324" stroke="#0e9d8a" stroke-width="1.5" opacity="0.4"/><line x1="392" y1="336" x2="313" y2="336" stroke="#0e9d8a" stroke-width="1.5" opacity="0.4"/><line x1="632" y1="336" x2="816" y2="336" stroke="#0e9d8a" stroke-width="1.5" opacity="0.4"/><line x1="420" y1="216" x2="420" y2="177" stroke="#0e9d8a" stroke-width="1.5" opacity="0.35"/><line x1="420" y1="360" x2="420" y2="451" stroke="#0e9d8a" stroke-width="1.5" opacity="0.35"/><line x1="456" y1="216" x2="456" y2="123" stroke="#0e9d8a" stroke-width="1.5" opacity="0.35"/><line x1="456" y1="360" x2="456" y2="431" stroke="#0e9d8a" stroke-width="1.5" opacity="0.35"/><line x1="492" y1="216" x2="492" y2="151" stroke="#0e9d8a" stroke-width="1.5" opacity="0.35"/><line x1="492" y1="360" x2="492" y2="439" stroke="#0e9d8a" stroke-width="1.5" opacity="0.35"/><line x1="528" y1="216" x2="528" y2="158" stroke="#0e9d8a" stroke-width="1.5" opacity="0.35"/><line x1="528" y1="360" x2="528" y2="410" stroke="#0e9d8a" stroke-width="1.5" opacity="0.35"/><line x1="564" y1="216" x2="564" y2="134" stroke="#0e9d8a" stroke-width="1.5" opacity="0.35"/><line x1="564" y1="360" x2="564" y2="407" stroke="#0e9d8a" stroke-width="1.5" opacity="0.35"/><line x1="600" y1="216" x2="600" y2="127" stroke="#0e9d8a" stroke-width="1.5" opacity="0.35"/><line x1="600" y1="360" x2="600" y2="458" stroke="#0e9d8a" stroke-width="1.5" opacity="0.35"/><rect x="0.5" y="0.5" width="1023" height="575" fill="none" stroke="#e3e8f0"/></svg>