<svg xmlns="http://www.w3.org/2000/svg" viewBox="0 0 1024 576" width="1024" height="576" role="img"><rect width="1024" height="576" fill="#fbfcfe"/><rect x="250" y="348" width="99" height="14" rx="7" fill="#dd0f68" opacity="0.24"/><rect x="669" y="341" width="140" height="14" rx="7" fill="#dd0f68" opacity="0.24"/><rect x="394" y="213" width="143" height="14" rx="7" fill="#dd0f68" opacity="0.22"/><rect x="205" y="191" width="152" height="14" rx="7" fill="#dd0f68" opacity="0.31"/><rect x="551" y="150" width="130" height="14" rx="7" fill="#dd0f68" opacity="0.35"/><rect x="751" y="271" width="93" height="14" rx="7" fill="#dd0f68" opacity="0.16"/><rect x="518" y="308" width="63" height="14" rx="7" fill="#dd0f68" opacity="0.22"/><rect x="475" y="230" width="71" height="14" rx="7" fill="#dd0f68" opacity="0.16"/><rect x="673" y="229" width="166" height="14" rx="7" fill="#dd0f68" opacity="0.19"/><rect x="356" y="161" width="69" height="14" rx="7" fill="#dd0f68" opacity="0.14"/><rect x="722" y="158" width="133" height="14" rx="7" fill="#dd0f68" opacity="0.31"/><rect x="181" y="407" width="157" height="14" rx="7" fill="#dd0f68" opacity="0.37"/><rect x="759" y="419" width="94" height="14" rx="7" fill="#dd0f68" opacity="0.15"/><rect x="286" y="348" width="139" height="14" rx="7" fill="#dd0f68" opacity="0.16"/><rect x="0.5" y="0.5" width="1023" height="575" fill="none" stroke="#e3e8f0"/></svg>