<svg xmlns="http://www.w3.org/2000/svg" viewBox="0 0 1024 576" width="1024" height="576" role="img"><rect width="1024" height="576" fill="#fbfcfe"/><rect x="417" y="374" width="135" height="14" rx="7" fill="#dd0f68" opacity="0.36"/><rect x="568" y="259" width="120" height="14" rx="7" fill="#dd0f68" opacity="0.39"/><rect x="418" y="165" width="144" height="14" rx="7" fill="#dd0f68" opacity="0.36"/><rect x="667" y="155" width="141" height="14" rx="7" fill="#dd0f68" opacity="0.33"/><rect x="725" y="284" width="124" height="14" rx="7" fill="#dd0f68" opacity="0.36"/><rect x="321" y="395" width="67" height="14" rx="7" fill="#dd0f68" opacity="0.15"/><rect x="653" y="211" width="102" height="14" rx="7" fill="#dd0f68" opacity="0.36"/><rect x="317" y="320" width="101" height="14" rx="7" fill="#dd0f68" opacity="0.25"/><rect x="697" y="136" width="127" height="14" rx="7" fill="#dd0f68" opacity="0.30"/><rect x="463" y="189" width="102" height="14" rx="7" fill="#dd0f68" opacity="0.26"/><rect x="671" y="379" width="148" height="14" rx="7" fill="#dd0f68" opacity="0.13"/><rect x="397" y="274" width="152" height="14" rx="7" fill="#dd0f68" opacity="0.37"/><rect x="364" y="131" width="125" height="14" rx="7" fill="#dd0f68" opacity="0.28"/><rect x="644" y="322" width="73" height="14" rx="7" fill="#dd0f68" opacity="0.18"/><rect x="0.5" y="0.5" width="1023" height="575" fill="none" stroke="#e3e8f0"/></svg>