<svg xmlns="http://www.w3.org/2000/svg" viewBox="0 0 1024 576" width="1024" height="576" role="img"><rect width="1024" height="576" fill="#fbfcfe"/><rect x="377" y="238" width="90" height="14" rx="7" fill="#dd0f68" opacity="0.33"/><rect x="693" y="277" width="67" height="14" rx="7" fill="#dd0f68" opacity="0.17"/><rect x="657" y="317" width="158" height="14" rx="7" fill="#dd0f68" opacity="0.30"/><rect x="757" y="376" width="112" height="14" rx="7" fill="#dd0f68" opacity="0.32"/><rect x="610" y="202" width="106" height="14" rx="7" fill="#dd0f68" opacity="0.22"/><rect x="642" y="266" width="164" height="14" rx="7" fill="#dd0f68" opacity="0.20"/><rect x="759" y="173" width="101" height="14" rx="7" fill="#dd0f68" opacity="0.34"/><rect x="217" y="218" width="145" height="14" rx="7" fill="#dd0f68" opacity="0.31"/><rect x="412" y="258" width="148" height="14" rx="7" fill="#dd0f68" opacity="0.26"/><rect x="723" y="349" width="164" height="14" rx="7" fill="#dd0f68" opacity="0.24"/><rect x="228" y="170" width="65" height="14" rx="7" fill="#dd0f68" opacity="0.34"/><rect x="294" y="387" width="74" height="14" rx="7" fill="#dd0f68" opacity="0.31"/><rect x="603" y="392" width="112" height="14" rx="7" fill="#dd0f68" opacity="0.30"/><rect x="347" y="198" width="124" height="14" rx="7" fill="#dd0f68" opacity="0.34"/><rect x="0.5" y="0.5" width="1023" height="575" fill="none" stroke="#e3e8f0"/></svg>