<svg xmlns="http://www.w3.org/2000/svg" viewBox="0 0 1024 576" width="1024" height="576" role="img"><rect width="1024" height="576" fill="#fbfcfe"/><rect x="663" y="313" width="73" height="14" rx="7" fill="#b4761a" opacity="0.14"/><rect x="280" y="347" width="65" height="14" rx="7" fill="#b4761a" opacity="0.17"/><rect x="512" y="359" width="91" height="14" rx="7" fill="#b4761a" opacity="0.34"/><rect x="226" y="239" width="117" height="14" rx="7" fill="#b4761a" opacity="0.12"/><rect x="632" y="338" width="145" height="14" rx="7" fill="#b4761a" opacity="0.21"/><rect x="351" y="170" width="123" height="14" rx="7" fill="#b4761a" opacity="0.35"/><rect x="487" y="306" width="92" height="14" rx="7" fill="#b4761a" opacity="0.12"/><rect x="434" y="396" width="79" height="14" rx="7" fill="#b4761a" opacity="0.32"/><rect x="199" y="298" width="160" height="14" rx="7" fill="#b4761a" opacity="0.27"/><rect x="331" y="386" width="144" height="14" rx="7" fill="#b4761a" opacity="0.34"/><rect x="430" y="333" width="89" height="14" rx="7" fill="#b4761a" opacity="0.18"/><rect x="441" y="182" width="69" height="14" rx="7" fill="#b4761a" opacity="0.25"/><rect x="399" y="408" width="112" height="14" rx="7" fill="#b4761a" opacity="0.20"/><rect x="452" y="346" width="61" height="14" rx="7" fill="#b4761a" opacity="0.13"/><rect x="0.5" y="0.5" width="1023" height="575" fill="none" stroke="#e3e8f0"/></svg>