<svg xmlns="http://www.w3.org/2000/svg" viewBox="0 0 1024 576" width="1024" height="576" role="img"><rect width="1024" height="576" fill="#fbfcfe"/><rect x="330" y="96" width="364" height="384" rx="6" fill="#ffffff" stroke="#e3e8f0"/><rect x="330" y="96" width="364" height="10" fill="#b4761a" opacity="0.5"/><rect x="366" y="150" width="241" height="9" rx="4" fill="#0d1526" opacity="0.13"/><rect x="366" y="178" width="237" height="9" rx="4" fill="#0d1526" opacity="0.13"/><rect x="366" y="206" width="208" height="9" rx="4" fill="#0d1526" opacity="0.13"/><rect x="366" y="234" width="260" height="9" rx="4" fill="#0d1526" opacity="0.13"/><rect x="366" y="262" width="194" height="9" rx="4" fill="#0d1526" opacity="0.13"/><rect x="366" y="290" width="274" height="9" rx="4" fill="#0d1526" opacity="0.13"/><rect x="366" y="318" width="170" height="9" rx="4" fill="#0d1526" opacity="0.13"/><rect x="366" y="346" width="264" height="9" rx="4" fill="#0d1526" opacity="0.13"/><rect x="366" y="374" width="139" height="9" rx="4" fill="#0d1526" opacity="0.13"/><rect x="366" y="402" width="267" height="9" rx="4" fill="#0d1526" opacity="0.13"/><rect x="366" y="430" width="125" height="9" rx="4" fill="#0d1526" opacity="0.13"/><rect x="0.5" y="0.5" width="1023" height="575" fill="none" stroke="#e3e8f0"/></svg>