<svg xmlns="http://www.w3.org/2000/svg" viewBox="0 0 1024 576" width="1024" height="576" role="img"><rect width="1024" height="576" fill="#fbfcfe"/><rect x="392" y="216" width="240" height="144" rx="8" fill="#fdeaee" stroke="#d0455e" stroke-width="2"/><line x1="392" y1="240" x2="222" y2="240" stroke="#d0455e" stroke-width="1.5" opacity="0.4"/><line x1="632" y1="240" x2="734" y2="240" stroke="#d0455e" stroke-width="1.5" opacity="0.4"/><line x1="392" y1="252" x2="238" y2="252" stroke="#d0455e" stroke-width="1.5" opacity="0.4"/><line x1="632" y1="252" x2="702" y2="252" stroke="#d0455e" stroke-width="1.5" opacity="0.4"/><line x1="392" y1="264" x2="285" y2="264" stroke="#d0455e" stroke-width="1.5" opacity="0.4"/><line x1="632" y1="264" x2="717" y2="264" stroke="#d0455e" stroke-width="1.5" opacity="0.4"/><line x1="392" y1="276" x2="305" y2="276" stroke="#d0455e" stroke-width="1.5" opacity="0.4"/><line x1="632" y1="276" x2="689" y2="276" stroke="#d0455e" stroke-width="1.5" opacity="0.4"/><line x1="392" y1="288" x2="239" y2="288" stroke="#d0455e" stroke-width="1.5" opacity="0.4"/><line x1="632" y1="288" x2="704" y2="288" stroke="#d0455e" stroke-width="1.5" opacity="0.4"/><line x1="392" y1="300" x2="235" y2="300" stroke="#d0455e" stroke-width="1.5" opacity="0.4"/><line x1="632" y1="300" x2="743" y2="300" stroke="#d0455e" stroke-width="1.5" opacity="0.4"/><line x1="392" y1="312" x2="244" y2="312" stroke="#d0455e" stroke-width="1.5" opacity="0.4"/><line x1="632" y1="312" x2="793" y2="312" stroke="#d0455e" stroke-width="1.5" opacity="0.4"/><line x1="392" y1="324" x2="333" y2="324" stroke="#d0455e" stroke-width="1.5" opacity="0.4"/><line x1="632" y1="324" x2="822" y2="324" stroke="#d0455e" stroke-width="1.5" opacity="0.4"/><line x1="392" y1="336" x2="227" y2="336" stroke="#d0455e" stroke-width="1.5" opacity="0.4"/><line x1="632" y1="336" x2="741" y2="336" stroke="#d0455e" stroke-width="1.5" opacity="0.4"/><line x1="420" y1="216" x2="420" y2="138" stroke="#d0455e" stroke-width="1.5" opacity="0.35"/><line x1="420" y1="360" x2="420" y2="439" stroke="#d0455e" stroke-width="1.5" opacity="0.35"/><line x1="456" y1="216" x2="456" y2="177" stroke="#d0455e" stroke-width="1.5" opacity="0.35"/><line x1="456" y1="360" x2="456" y2="455" stroke="#d0455e" stroke-width="1.5" opacity="0.35"/><line x1="492" y1="216" x2="492" y2="125" stroke="#d0455e" stroke-width="1.5" opacity="0.35"/><line x1="492" y1="360" x2="492" y2="432" stroke="#d0455e" stroke-width="1.5" opacity="0.35"/><line x1="528" y1="216" x2="528" y2="130" stroke="#d0455e" stroke-width="1.5" opacity="0.35"/><line x1="528" y1="360" x2="528" y2="438" stroke="#d0455e" stroke-width="1.5" opacity="0.35"/><line x1="564" y1="216" x2="564" y2="154" stroke="#d0455e" stroke-width="1.5" opacity="0.35"/><line x1="564" y1="360" x2="564" y2="434" stroke="#d0455e" stroke-width="1.5" opacity="0.35"/><line x1="600" y1="216" x2="600" y2="155" stroke="#d0455e" stroke-width="1.5" opacity="0.35"/><line x1="600" y1="360" x2="600" y2="441" stroke="#d0455e" stroke-width="1.5" opacity="0.35"/><rect x="0.5" y="0.5" width="1023" height="575" fill="none" stroke="#e3e8f0"/></svg>