<svg xmlns="http://www.w3.org/2000/svg" viewBox="0 0 1024 576" width="1024" height="576" role="img"><rect width="1024" height="576" fill="#fbfcfe"/><rect x="330" y="96" width="364" height="384" rx="6" fill="#ffffff" stroke="#e3e8f0"/><rect x="330" y="96" width="364" height="10" fill="#b4761a" opacity="0.5"/><rect x="366" y="150" width="149" height="9" rx="4" fill="#0d1526" opacity="0.13"/><rect x="366" y="178" width="161" height="9" rx="4" fill="#0d1526" opacity="0.13"/><rect x="366" y="206" width="248" height="9" rx="4" fill="#0d1526" opacity="0.13"/><rect x="366" y="234" width="255" height="9" rx="4" fill="#0d1526" opacity="0.13"/><rect x="366" y="262" width="187" height="9" rx="4" fill="#0d1526" opacity="0.13"/><rect x="366" y="290" width="228" height="9" rx="4" fill="#0d1526" opacity="0.13"/><rect x="366" y="318" width="158" height="9" rx="4" fill="#0d1526" opacity="0.13"/><rect x="366" y="346" width="136" height="9" rx="4" fill="#0d1526" opacity="0.13"/><rect x="366" y="374" width="230" height="9" rx="4" fill="#0d1526" opacity="0.13"/><rect x="366" y="402" width="267" height="9" rx="4" fill="#0d1526" opacity="0.13"/><rect x="366" y="430" width="203" height="9" rx="4" fill="#0d1526" opacity="0.13"/><rect x="0.5" y="0.5" width="1023" height="575" fill="none" stroke="#e3e8f0"/></svg>