<svg xmlns="http://www.w3.org/2000/svg" viewBox="0 0 1024 576" width="1024" height="576" role="img"><rect width="1024" height="576" fill="#fbfcfe"/><line x1="200" y1="450" x2="824" y2="450" stroke="#e3e8f0" stroke-width="2"/><line x1="200" y1="450" x2="200" y2="110" stroke="#e3e8f0" stroke-width="2"/><circle cx="220" cy="414" r="5" fill="#dd0f68" opacity="0.45"/><circle cx="243" cy="414" r="8" fill="#dd0f68" opacity="0.45"/><circle cx="266" cy="422" r="6" fill="#dd0f68" opacity="0.45"/><circle cx="290" cy="393" r="5" fill="#dd0f68" opacity="0.45"/><circle cx="313" cy="408" r="7" fill="#dd0f68" opacity="0.45"/><circle cx="336" cy="381" r="7" fill="#dd0f68" opacity="0.45"/><circle cx="359" cy="337" r="6" fill="#dd0f68" opacity="0.45"/><circle cx="382" cy="378" r="4" fill="#dd0f68" opacity="0.45"/><circle cx="406" cy="323" r="4" fill="#dd0f68" opacity="0.45"/><circle cx="429" cy="347" r="4" fill="#dd0f68" opacity="0.45"/><circle cx="452" cy="310" r="5" fill="#dd0f68" opacity="0.45"/><circle cx="475" cy="300" r="5" fill="#dd0f68" opacity="0.45"/><circle cx="498" cy="281" r="5" fill="#dd0f68" opacity="0.45"/><circle cx="522" cy="293" r="5" fill="#dd0f68" opacity="0.45"/><circle cx="545" cy="241" r="4" fill="#dd0f68" opacity="0.45"/><circle cx="568" cy="239" r="4" fill="#dd0f68" opacity="0.45"/><circle cx="591" cy="280" r="6" fill="#dd0f68" opacity="0.45"/><circle cx="614" cy="209" r="8" fill="#dd0f68" opacity="0.45"/><circle cx="638" cy="231" r="8" fill="#dd0f68" opacity="0.45"/><circle cx="661" cy="250" r="6" fill="#dd0f68" opacity="0.45"/><circle cx="684" cy="176" r="6" fill="#dd0f68" opacity="0.45"/><circle cx="707" cy="216" r="5" fill="#dd0f68" opacity="0.45"/><circle cx="730" cy="206" r="5" fill="#dd0f68" opacity="0.45"/><circle cx="754" cy="133" r="5" fill="#dd0f68" opacity="0.45"/><circle cx="777" cy="202" r="4" fill="#dd0f68" opacity="0.45"/><circle cx="800" cy="136" r="7" fill="#dd0f68" opacity="0.45"/><line x1="220" y1="430" x2="800" y2="150" stroke="#dd0f68" stroke-width="2.5" stroke-dasharray="8 6"/><rect x="0.5" y="0.5" width="1023" height="575" fill="none" stroke="#e3e8f0"/></svg>