<svg xmlns="http://www.w3.org/2000/svg" viewBox="0 0 1024 576" width="1024" height="576" role="img"><rect width="1024" height="576" fill="#fbfcfe"/><rect x="392" y="216" width="240" height="144" rx="8" fill="#e2f7f3" stroke="#0e9d8a" stroke-width="2"/><line x1="392" y1="240" x2="332" y2="240" stroke="#0e9d8a" stroke-width="1.5" opacity="0.4"/><line x1="632" y1="240" x2="753" y2="240" stroke="#0e9d8a" stroke-width="1.5" opacity="0.4"/><line x1="392" y1="252" x2="286" y2="252" stroke="#0e9d8a" stroke-width="1.5" opacity="0.4"/><line x1="632" y1="252" x2="799" y2="252" stroke="#0e9d8a" stroke-width="1.5" opacity="0.4"/><line x1="392" y1="264" x2="221" y2="264" stroke="#0e9d8a" stroke-width="1.5" opacity="0.4"/><line x1="632" y1="264" x2="700" y2="264" stroke="#0e9d8a" stroke-width="1.5" opacity="0.4"/><line x1="392" y1="276" x2="299" y2="276" stroke="#0e9d8a" stroke-width="1.5" opacity="0.4"/><line x1="632" y1="276" x2="754" y2="276" stroke="#0e9d8a" stroke-width="1.5" opacity="0.4"/><line x1="392" y1="288" x2="314" y2="288" stroke="#0e9d8a" stroke-width="1.5" opacity="0.4"/><line x1="632" y1="288" x2="688" y2="288" stroke="#0e9d8a" stroke-width="1.5" opacity="0.4"/><line x1="392" y1="300" x2="223" y2="300" stroke="#0e9d8a" stroke-width="1.5" opacity="0.4"/><line x1="632" y1="300" x2="818" y2="300" stroke="#0e9d8a" stroke-width="1.5" opacity="0.4"/><line x1="392" y1="312" x2="322" y2="312" stroke="#0e9d8a" stroke-width="1.5" opacity="0.4"/><line x1="632" y1="312" x2="791" y2="312" stroke="#0e9d8a" stroke-width="1.5" opacity="0.4"/><line x1="392" y1="324" x2="306" y2="324" stroke="#0e9d8a" stroke-width="1.5" opacity="0.4"/><line x1="632" y1="324" x2="780" y2="324" stroke="#0e9d8a" stroke-width="1.5" opacity="0.4"/><line x1="392" y1="336" x2="296" y2="336" stroke="#0e9d8a" stroke-width="1.5" opacity="0.4"/><line x1="632" y1="336" x2="718" y2="336" stroke="#0e9d8a" stroke-width="1.5" opacity="0.4"/><line x1="420" y1="216" x2="420" y2="137" stroke="#0e9d8a" stroke-width="1.5" opacity="0.35"/><line x1="420" y1="360" x2="420" y2="454" stroke="#0e9d8a" stroke-width="1.5" opacity="0.35"/><line x1="456" y1="216" x2="456" y2="144" stroke="#0e9d8a" stroke-width="1.5" opacity="0.35"/><line x1="456" y1="360" x2="456" y2="451" stroke="#0e9d8a" stroke-width="1.5" opacity="0.35"/><line x1="492" y1="216" x2="492" y2="127" stroke="#0e9d8a" stroke-width="1.5" opacity="0.35"/><line x1="492" y1="360" x2="492" y2="448" stroke="#0e9d8a" stroke-width="1.5" opacity="0.35"/><line x1="528" y1="216" x2="528" y2="145" stroke="#0e9d8a" stroke-width="1.5" opacity="0.35"/><line x1="528" y1="360" x2="528" y2="403" stroke="#0e9d8a" stroke-width="1.5" opacity="0.35"/><line x1="564" y1="216" x2="564" y2="124" stroke="#0e9d8a" stroke-width="1.5" opacity="0.35"/><line x1="564" y1="360" x2="564" y2="402" stroke="#0e9d8a" stroke-width="1.5" opacity="0.35"/><line x1="600" y1="216" x2="600" y2="178" stroke="#0e9d8a" stroke-width="1.5" opacity="0.35"/><line x1="600" y1="360" x2="600" y2="456" stroke="#0e9d8a" stroke-width="1.5" opacity="0.35"/><rect x="0.5" y="0.5" width="1023" height="575" fill="none" stroke="#e3e8f0"/></svg>