<svg xmlns="http://www.w3.org/2000/svg" viewBox="0 0 1024 576" width="1024" height="576" role="img"><rect width="1024" height="576" fill="#fbfcfe"/><line x1="200" y1="450" x2="824" y2="450" stroke="#e3e8f0" stroke-width="2"/><line x1="200" y1="450" x2="200" y2="110" stroke="#e3e8f0" stroke-width="2"/><circle cx="220" cy="454" r="7" fill="#6d4fe0" opacity="0.45"/><circle cx="243" cy="394" r="7" fill="#6d4fe0" opacity="0.45"/><circle cx="266" cy="379" r="7" fill="#6d4fe0" opacity="0.45"/><circle cx="290" cy="388" r="5" fill="#6d4fe0" opacity="0.45"/><circle cx="313" cy="371" r="8" fill="#6d4fe0" opacity="0.45"/><circle cx="336" cy="417" r="7" fill="#6d4fe0" opacity="0.45"/><circle cx="359" cy="331" r="5" fill="#6d4fe0" opacity="0.45"/><circle cx="382" cy="333" r="7" fill="#6d4fe0" opacity="0.45"/><circle cx="406" cy="314" r="8" fill="#6d4fe0" opacity="0.45"/><circle cx="429" cy="344" r="7" fill="#6d4fe0" opacity="0.45"/><circle cx="452" cy="314" r="6" fill="#6d4fe0" opacity="0.45"/><circle cx="475" cy="314" r="5" fill="#6d4fe0" opacity="0.45"/><circle cx="498" cy="260" r="6" fill="#6d4fe0" opacity="0.45"/><circle cx="522" cy="261" r="6" fill="#6d4fe0" opacity="0.45"/><circle cx="545" cy="276" r="4" fill="#6d4fe0" opacity="0.45"/><circle cx="568" cy="243" r="6" fill="#6d4fe0" opacity="0.45"/><circle cx="591" cy="271" r="7" fill="#6d4fe0" opacity="0.45"/><circle cx="614" cy="284" r="5" fill="#6d4fe0" opacity="0.45"/><circle cx="638" cy="205" r="6" fill="#6d4fe0" opacity="0.45"/><circle cx="661" cy="201" r="7" fill="#6d4fe0" opacity="0.45"/><circle cx="684" cy="208" r="4" fill="#6d4fe0" opacity="0.45"/><circle cx="707" cy="223" r="7" fill="#6d4fe0" opacity="0.45"/><circle cx="730" cy="167" r="5" fill="#6d4fe0" opacity="0.45"/><circle cx="754" cy="204" r="7" fill="#6d4fe0" opacity="0.45"/><circle cx="777" cy="153" r="7" fill="#6d4fe0" opacity="0.45"/><circle cx="800" cy="143" r="4" fill="#6d4fe0" opacity="0.45"/><line x1="220" y1="430" x2="800" y2="150" stroke="#6d4fe0" stroke-width="2.5" stroke-dasharray="8 6"/><rect x="0.5" y="0.5" width="1023" height="575" fill="none" stroke="#e3e8f0"/></svg>