<svg xmlns="http://www.w3.org/2000/svg" viewBox="0 0 1024 576" width="1024" height="576" role="img"><rect width="1024" height="576" fill="#fbfcfe"/><line x1="200" y1="450" x2="824" y2="450" stroke="#e3e8f0" stroke-width="2"/><line x1="200" y1="450" x2="200" y2="110" stroke="#e3e8f0" stroke-width="2"/><circle cx="220" cy="405" r="6" fill="#6d4fe0" opacity="0.45"/><circle cx="243" cy="449" r="6" fill="#6d4fe0" opacity="0.45"/><circle cx="266" cy="411" r="6" fill="#6d4fe0" opacity="0.45"/><circle cx="290" cy="359" r="6" fill="#6d4fe0" opacity="0.45"/><circle cx="313" cy="415" r="7" fill="#6d4fe0" opacity="0.45"/><circle cx="336" cy="418" r="4" fill="#6d4fe0" opacity="0.45"/><circle cx="359" cy="333" r="7" fill="#6d4fe0" opacity="0.45"/><circle cx="382" cy="359" r="4" fill="#6d4fe0" opacity="0.45"/><circle cx="406" cy="374" r="6" fill="#6d4fe0" opacity="0.45"/><circle cx="429" cy="343" r="7" fill="#6d4fe0" opacity="0.45"/><circle cx="452" cy="335" r="8" fill="#6d4fe0" opacity="0.45"/><circle cx="475" cy="332" r="5" fill="#6d4fe0" opacity="0.45"/><circle cx="498" cy="326" r="4" fill="#6d4fe0" opacity="0.45"/><circle cx="522" cy="284" r="4" fill="#6d4fe0" opacity="0.45"/><circle cx="545" cy="287" r="4" fill="#6d4fe0" opacity="0.45"/><circle cx="568" cy="285" r="6" fill="#6d4fe0" opacity="0.45"/><circle cx="591" cy="284" r="8" fill="#6d4fe0" opacity="0.45"/><circle cx="614" cy="248" r="6" fill="#6d4fe0" opacity="0.45"/><circle cx="638" cy="249" r="5" fill="#6d4fe0" opacity="0.45"/><circle cx="661" cy="228" r="5" fill="#6d4fe0" opacity="0.45"/><circle cx="684" cy="247" r="6" fill="#6d4fe0" opacity="0.45"/><circle cx="707" cy="157" r="5" fill="#6d4fe0" opacity="0.45"/><circle cx="730" cy="181" r="8" fill="#6d4fe0" opacity="0.45"/><circle cx="754" cy="157" r="6" fill="#6d4fe0" opacity="0.45"/><circle cx="777" cy="160" r="7" fill="#6d4fe0" opacity="0.45"/><circle cx="800" cy="127" r="5" fill="#6d4fe0" opacity="0.45"/><line x1="220" y1="430" x2="800" y2="150" stroke="#6d4fe0" stroke-width="2.5" stroke-dasharray="8 6"/><rect x="0.5" y="0.5" width="1023" height="575" fill="none" stroke="#e3e8f0"/></svg>