<svg xmlns="http://www.w3.org/2000/svg" viewBox="0 0 1024 576" width="1024" height="576" role="img"><rect width="1024" height="576" fill="#fbfcfe"/><rect x="412" y="216" width="111" height="14" rx="7" fill="#0e9d8a" opacity="0.18"/><rect x="467" y="209" width="94" height="14" rx="7" fill="#0e9d8a" opacity="0.33"/><rect x="534" y="230" width="120" height="14" rx="7" fill="#0e9d8a" opacity="0.13"/><rect x="684" y="185" width="79" height="14" rx="7" fill="#0e9d8a" opacity="0.32"/><rect x="472" y="237" width="133" height="14" rx="7" fill="#0e9d8a" opacity="0.22"/><rect x="370" y="128" width="88" height="14" rx="7" fill="#0e9d8a" opacity="0.38"/><rect x="635" y="299" width="84" height="14" rx="7" fill="#0e9d8a" opacity="0.25"/><rect x="326" y="364" width="129" height="14" rx="7" fill="#0e9d8a" opacity="0.14"/><rect x="474" y="300" width="129" height="14" rx="7" fill="#0e9d8a" opacity="0.40"/><rect x="207" y="200" width="64" height="14" rx="7" fill="#0e9d8a" opacity="0.39"/><rect x="696" y="146" width="156" height="14" rx="7" fill="#0e9d8a" opacity="0.31"/><rect x="484" y="312" width="147" height="14" rx="7" fill="#0e9d8a" opacity="0.35"/><rect x="604" y="281" width="98" height="14" rx="7" fill="#0e9d8a" opacity="0.34"/><rect x="505" y="230" width="70" height="14" rx="7" fill="#0e9d8a" opacity="0.15"/><rect x="0.5" y="0.5" width="1023" height="575" fill="none" stroke="#e3e8f0"/></svg>