<svg xmlns="http://www.w3.org/2000/svg" viewBox="0 0 1024 576" width="1024" height="576" role="img"><rect width="1024" height="576" fill="#fbfcfe"/><rect x="392" y="216" width="240" height="144" rx="8" fill="#fdf2dd" stroke="#b4761a" stroke-width="2"/><line x1="392" y1="240" x2="259" y2="240" stroke="#b4761a" stroke-width="1.5" opacity="0.4"/><line x1="632" y1="240" x2="685" y2="240" stroke="#b4761a" stroke-width="1.5" opacity="0.4"/><line x1="392" y1="252" x2="220" y2="252" stroke="#b4761a" stroke-width="1.5" opacity="0.4"/><line x1="632" y1="252" x2="770" y2="252" stroke="#b4761a" stroke-width="1.5" opacity="0.4"/><line x1="392" y1="264" x2="233" y2="264" stroke="#b4761a" stroke-width="1.5" opacity="0.4"/><line x1="632" y1="264" x2="747" y2="264" stroke="#b4761a" stroke-width="1.5" opacity="0.4"/><line x1="392" y1="276" x2="216" y2="276" stroke="#b4761a" stroke-width="1.5" opacity="0.4"/><line x1="632" y1="276" x2="780" y2="276" stroke="#b4761a" stroke-width="1.5" opacity="0.4"/><line x1="392" y1="288" x2="262" y2="288" stroke="#b4761a" stroke-width="1.5" opacity="0.4"/><line x1="632" y1="288" x2="800" y2="288" stroke="#b4761a" stroke-width="1.5" opacity="0.4"/><line x1="392" y1="300" x2="203" y2="300" stroke="#b4761a" stroke-width="1.5" opacity="0.4"/><line x1="632" y1="300" x2="771" y2="300" stroke="#b4761a" stroke-width="1.5" opacity="0.4"/><line x1="392" y1="312" x2="267" y2="312" stroke="#b4761a" stroke-width="1.5" opacity="0.4"/><line x1="632" y1="312" x2="754" y2="312" stroke="#b4761a" stroke-width="1.5" opacity="0.4"/><line x1="392" y1="324" x2="322" y2="324" stroke="#b4761a" stroke-width="1.5" opacity="0.4"/><line x1="632" y1="324" x2="756" y2="324" stroke="#b4761a" stroke-width="1.5" opacity="0.4"/><line x1="392" y1="336" x2="307" y2="336" stroke="#b4761a" stroke-width="1.5" opacity="0.4"/><line x1="632" y1="336" x2="695" y2="336" stroke="#b4761a" stroke-width="1.5" opacity="0.4"/><line x1="420" y1="216" x2="420" y2="127" stroke="#b4761a" stroke-width="1.5" opacity="0.35"/><line x1="420" y1="360" x2="420" y2="442" stroke="#b4761a" stroke-width="1.5" opacity="0.35"/><line x1="456" y1="216" x2="456" y2="138" stroke="#b4761a" stroke-width="1.5" opacity="0.35"/><line x1="456" y1="360" x2="456" y2="448" stroke="#b4761a" stroke-width="1.5" opacity="0.35"/><line x1="492" y1="216" x2="492" y2="174" stroke="#b4761a" stroke-width="1.5" opacity="0.35"/><line x1="492" y1="360" x2="492" y2="396" stroke="#b4761a" stroke-width="1.5" opacity="0.35"/><line x1="528" y1="216" x2="528" y2="125" stroke="#b4761a" stroke-width="1.5" opacity="0.35"/><line x1="528" y1="360" x2="528" y2="421" stroke="#b4761a" stroke-width="1.5" opacity="0.35"/><line x1="564" y1="216" x2="564" y2="129" stroke="#b4761a" stroke-width="1.5" opacity="0.35"/><line x1="564" y1="360" x2="564" y2="444" stroke="#b4761a" stroke-width="1.5" opacity="0.35"/><line x1="600" y1="216" x2="600" y2="153" stroke="#b4761a" stroke-width="1.5" opacity="0.35"/><line x1="600" y1="360" x2="600" y2="458" stroke="#b4761a" stroke-width="1.5" opacity="0.35"/><rect x="0.5" y="0.5" width="1023" height="575" fill="none" stroke="#e3e8f0"/></svg>